<svg width="24" height="24" viewBox="0 0 24 24" fill="none" xmlns="http://www.w3.org/2000/svg">
<path d="M10.6667 18.6667C10.6667 19.4 11.2667 20 12 20C12.7333 20 13.3333 19.4 13.3333 18.6667C13.3333 17.9333 12.7333 17.3333 12 17.3333C11.2667 17.3333 10.6667 17.9333 10.6667 18.6667ZM10.6667 0V5.33333H13.3333V2.77333C17.8533 3.42667 21.3333 7.29333 21.3333 12C21.3333 17.16 17.16 21.3333 12 21.3333C6.84 21.3333 2.66667 17.16 2.66667 12C2.66667 9.76 3.45333 7.70667 4.77333 6.10667L12 13.3333L13.88 11.4533L4.81333 2.38667V2.41333C1.89333 4.6 0 8.06667 0 12C0 18.6267 5.36 24 12 24C18.6267 24 24 18.6267 24 12C24 5.37333 18.6267 0 12 0H10.6667ZM20 12C20 11.2667 19.4 10.6667 18.6667 10.6667C17.9333 10.6667 17.3333 11.2667 17.3333 12C17.3333 12.7333 17.9333 13.3333 18.6667 13.3333C19.4 13.3333 20 12.7333 20 12ZM4 12C4 12.7333 4.6 13.3333 5.33333 13.3333C6.06667 13.3333 6.66667 12.7333 6.66667 12C6.66667 11.2667 6.06667 10.6667 5.33333 10.6667C4.6 10.6667 4 11.2667 4 12Z" fill="#1B4965"/>
</svg>
